<svg width="86" height="50" viewBox="0 0 86 50" fill="none" xmlns="http://www.w3.org/2000/svg">
<path d="M61.9597 0C49.9354 5.13219 40.2853 19.5956 32.3201 29.7045C30.6352 27.2939 27.8014 25.4277 24.8145 25.4277C20.7553 25.4277 18.0748 28.2271 18.0748 32.3484C18.0748 35.7698 19.9895 39.269 22.3637 41.6019C19.0704 44.8678 14.2454 49.1446 9.34373 49.1446C8.11832 49.1446 3.2167 48.2893 3.2167 46.423C3.2167 46.112 3.44646 45.9564 3.67622 45.8787C5.82069 45.0233 7.96515 43.3126 7.96515 40.7465C7.96515 38.8025 6.43339 37.5583 4.59528 37.5583C1.83811 37.5583 0 39.8134 0 42.535C0 47.2006 5.20798 50 9.26714 50C14.322 50 19.4533 45.6454 22.8998 42.2239C25.1209 44.9456 30.5586 47.6672 34.0051 47.5894L33.4689 49.1446H41.2043C41.5107 48.1337 41.7404 47.1229 42.0468 46.112C44.804 44.4012 47.025 42.846 48.7865 39.8911C48.8631 39.8134 48.8631 39.6579 48.8631 39.5801C48.8631 39.3468 48.71 39.1913 48.4802 39.1913C48.2504 39.1913 48.0972 39.269 48.0207 39.4246C46.4123 41.8351 44.8806 43.4681 42.3532 44.9456C44.1913 38.4914 46.5655 32.1928 49.0163 25.8942C51.6969 19.0513 55.1433 12.4417 58.6664 5.98756C59.7386 3.96579 60.8874 2.02177 61.9597 0ZM59.7386 1.86625C53.6116 9.56454 48.8631 16.563 44.1913 25.2722C41.0511 31.1042 38.0642 37.014 35.6134 43.2348C35.6134 39.1913 34.7709 34.2146 32.8562 30.6376C37.7579 24.339 42.3531 17.5739 47.7909 11.6641C51.3139 7.85381 55.4497 4.82115 59.7386 1.86625ZM31.4777 30.8709C28.8737 34.3701 25.9633 37.7138 22.9764 40.902C21.1383 39.1135 20.2958 37.0918 20.2958 34.5257C20.2958 30.8709 22.2105 28.0715 25.9633 28.0715C28.1078 28.0715 30.1757 29.2379 31.4777 30.8709ZM34.8475 43.1571C34.8475 44.4012 34.8475 45.7232 34.2348 46.8896C29.9459 46.3452 26.6526 44.6345 23.5891 41.5241C26.6526 38.4137 29.4098 34.9922 32.0904 31.5708C33.9285 33.5148 34.8475 40.5132 34.8475 43.1571Z" fill="#3A3A3C"/>
<path fill-rule="evenodd" clip-rule="evenodd" d="M86 5.90979C86 3.03266 83.8555 1.01089 81.0984 1.01089C75.7372 1.01089 69.1507 6.22084 65.8574 10.1866C63.1768 13.4526 60.726 17.1073 58.8879 20.9176C56.0541 21.5397 52.5518 22.1954 49.7946 23.2063C49.7946 23.2063 44.6011 24.4504 41.5024 25.5054C38.1325 26.5941 29.8217 30.7974 27.2943 33.4412C27.2177 33.519 26.9879 33.7523 26.9879 33.9078C26.9879 33.9855 27.0645 34.0633 27.2177 34.0633C27.2943 34.0633 27.4475 33.9855 27.5241 33.9078C30.0515 31.886 38.0559 27.605 41.1194 26.5941C44.8599 25.2722 49.2585 24.4504 49.2585 24.4504C52.0156 23.4395 55.5946 22.8616 58.4283 22.084C55.7477 27.4495 52.3779 34.2146 52.3779 40.3577C52.3779 45.8009 54.9819 49.4557 60.5728 49.4557C65.551 49.4557 69.1507 43.5459 71.6781 39.8911C71.9078 39.5801 72.2908 39.1135 72.2908 38.647C72.2908 38.4914 72.2142 38.3359 71.9844 38.3359C71.6781 38.3359 71.3717 38.7247 71.2185 38.958C69.1507 41.9907 64.7851 48.6781 60.8791 48.6781C58.8113 48.6781 58.3517 46.8118 58.3517 45.0233C58.3517 39.4246 64.3256 25.661 66.7764 20.0622C72.9035 18.5848 86 13.6858 86 5.90979ZM80.8686 12.5194C82.477 11.042 83.2428 8.70918 83.2428 6.53188C83.2428 4.82115 82.6301 1.94401 80.4857 1.94401C76.0436 1.94401 73.7459 5.83204 71.6781 9.33126C69.9165 12.3639 68.4614 15.7076 67.0828 18.8958C70.759 18.3515 78.188 15.0078 80.8686 12.5194Z" fill="#3A3A3C"/>
</svg>
