<svg width="199" height="50" viewBox="0 0 199 50" fill="none" xmlns="http://www.w3.org/2000/svg">
<path d="M13.8143 0L22.579 22.2476C22.9156 23.1006 23.2883 23.6929 23.6971 24.0246C24.1299 24.3326 24.5147 24.4984 24.8513 24.5221V25.2329C24.1299 25.1855 23.2763 25.1618 22.2904 25.1618C21.3286 25.1381 20.3547 25.1263 19.3689 25.1263C18.2628 25.1263 17.2168 25.1381 16.2309 25.1618C15.245 25.1618 14.4635 25.1855 13.8864 25.2329V24.5221C15.1128 24.4747 15.8822 24.2733 16.1948 23.918C16.5315 23.5389 16.4593 22.7452 15.9784 21.5368L9.84674 5.01104L10.496 4.08702L5.01354 18.1606C4.34026 19.9139 4.00362 21.2407 4.00362 22.141C4.02767 23.0413 4.32824 23.6573 4.90534 23.989C5.48243 24.297 6.2519 24.4747 7.21373 24.5221V25.2329C6.42022 25.1855 5.66278 25.1618 4.9414 25.1618C4.22003 25.1381 3.48664 25.1263 2.74122 25.1263C2.21221 25.1263 1.70725 25.1381 1.22633 25.1618C0.769464 25.1618 0.360686 25.1855 0 25.2329V24.5221C0.504961 24.4274 1.02194 24.1075 1.55095 23.5626C2.07996 23.0176 2.59694 22.0936 3.1019 20.7905L11.3256 0C11.7103 0.0236926 12.1191 0.0355391 12.5519 0.0355391C13.0088 0.0355391 13.4296 0.0236926 13.8143 0ZM16.3391 14.9976V15.7084H5.59064L5.95133 14.9976H16.3391Z" fill="#3A3A3C"/>
<path d="M46.6029 6.89463V7.64095C45.7613 7.64095 45.1602 7.81865 44.7995 8.17404C44.4629 8.52944 44.2945 9.20468 44.2945 10.1998V21.9278C44.2945 22.9229 44.4629 23.5981 44.7995 23.9535C45.1602 24.3089 45.7613 24.4866 46.6029 24.4866V25.2329C46.1461 25.2092 45.4487 25.1855 44.511 25.1618C43.5972 25.1144 42.7075 25.0908 41.8419 25.0908C40.9281 25.0908 40.0264 25.1144 39.1367 25.1618C38.2711 25.1855 37.6098 25.2092 37.153 25.2329V24.4866C37.8743 24.4866 38.3793 24.3089 38.6678 23.9535C38.9564 23.5981 39.1007 22.9229 39.1007 21.9278V10.1998C39.1007 9.20468 38.9564 8.52944 38.6678 8.17404C38.3793 7.81865 37.8743 7.64095 37.153 7.64095V6.89463C37.5858 6.91832 38.223 6.95386 39.0646 7.00124C39.9062 7.02494 40.7598 7.03678 41.6255 7.03678C42.5632 7.03678 43.501 7.02494 44.4388 7.00124C45.4007 6.95386 46.122 6.91832 46.6029 6.89463ZM34.8085 6.89463V7.64095C34.1112 7.64095 33.6062 7.81865 33.2936 8.17404C33.0051 8.52944 32.8608 9.20468 32.8608 10.1998V21.9278C32.8608 22.9229 33.0051 23.5981 33.2936 23.9535C33.6062 24.3089 34.1112 24.4866 34.8085 24.4866V25.2329C34.3757 25.2092 33.7385 25.1855 32.8969 25.1618C32.0793 25.1144 31.2257 25.0908 30.336 25.0908C29.4222 25.0908 28.4845 25.1144 27.5226 25.1618C26.5608 25.1855 25.8394 25.2092 25.3585 25.2329V24.4866C26.2001 24.4866 26.7892 24.3089 27.1259 23.9535C27.4866 23.5981 27.6669 22.9229 27.6669 21.9278V10.1998C27.6669 9.20468 27.4866 8.52944 27.1259 8.17404C26.7892 7.81865 26.2001 7.64095 25.3585 7.64095V6.89463C25.8154 6.91832 26.5007 6.95386 27.4144 7.00124C28.3522 7.02494 29.2539 7.03678 30.1196 7.03678C31.0574 7.03678 31.9591 7.02494 32.8247 7.00124C33.7144 6.95386 34.3757 6.91832 34.8085 6.89463ZM40.9762 15.4241V16.1348H30.8049V15.4241H40.9762Z" fill="#3A3A3C"/>
<path d="M70.2178 6.89463V7.64095C69.3762 7.64095 68.775 7.81865 68.4143 8.17404C68.0777 8.52944 67.9094 9.20468 67.9094 10.1998V21.9278C67.9094 22.9229 68.0777 23.5981 68.4143 23.9535C68.775 24.3089 69.3762 24.4866 70.2178 24.4866V25.2329C69.7609 25.2092 69.0636 25.1855 68.1258 25.1618C67.212 25.1144 66.3223 25.0908 65.4567 25.0908C64.5429 25.0908 63.6412 25.1144 62.7515 25.1618C61.8859 25.1855 61.2246 25.2092 60.7678 25.2329V24.4866C61.4891 24.4866 61.9941 24.3089 62.2826 23.9535C62.5712 23.5981 62.7155 22.9229 62.7155 21.9278V10.1998C62.7155 9.20468 62.5712 8.52944 62.2826 8.17404C61.9941 7.81865 61.4891 7.64095 60.7678 7.64095V6.89463C61.2006 6.91832 61.8378 6.95386 62.6794 7.00124C63.521 7.02494 64.3746 7.03678 65.2403 7.03678C66.1781 7.03678 67.1159 7.02494 68.0536 7.00124C69.0155 6.95386 69.7368 6.91832 70.2178 6.89463ZM57.7741 6.89463V7.64095C57.0767 7.64095 56.5718 7.81865 56.2592 8.17404C55.9706 8.52944 55.8264 9.20468 55.8264 10.1998V21.9278C55.8264 22.9229 55.9706 23.5981 56.2592 23.9535C56.5718 24.3089 57.0767 24.4866 57.7741 24.4866V25.2329C57.3412 25.2092 56.704 25.1855 55.8624 25.1618C55.0449 25.1144 54.1912 25.0908 53.3016 25.0908C52.3878 25.0908 51.45 25.1144 50.4882 25.1618C49.5264 25.1855 48.805 25.2092 48.3241 25.2329V24.4866C49.1657 24.4866 49.7548 24.3089 50.0914 23.9535C50.4521 23.5981 50.6325 22.9229 50.6325 21.9278V10.1998C50.6325 9.20468 50.4521 8.52944 50.0914 8.17404C49.7548 7.81865 49.1657 7.64095 48.3241 7.64095V6.89463C48.781 6.91832 49.4663 6.95386 50.38 7.00124C51.3178 7.02494 52.2195 7.03678 53.0851 7.03678C54.0229 7.03678 54.9246 7.02494 55.7903 7.00124C56.68 6.95386 57.3412 6.91832 57.7741 6.89463ZM63.1483 9.06252L63.7615 9.41792L55.1771 23.7403L54.564 23.3849L63.1483 9.06252Z" fill="#3A3A3C"/>
<path d="M81.3368 6.36154C82.2745 6.36154 83.1282 6.46816 83.8976 6.68139C84.6911 6.87093 85.3404 7.11971 85.8453 7.42772C86.4705 7.8068 86.9514 8.28066 87.2881 8.84929C87.6488 9.39423 87.8291 10.0339 87.8291 10.7684C87.8291 11.5977 87.5646 12.2848 87.0356 12.8297C86.5066 13.3509 85.8213 13.6116 84.9797 13.6116C84.1381 13.6116 83.4648 13.3746 82.9598 12.9008C82.4549 12.4269 82.2024 11.7872 82.2024 10.9816C82.2024 10.2235 82.4429 9.59561 82.9238 9.09806C83.4047 8.57682 83.9577 8.23327 84.5829 8.06742C84.3906 7.83049 84.102 7.62911 83.7173 7.46326C83.3326 7.29741 82.8997 7.21448 82.4188 7.21448C81.6734 7.21448 81.0121 7.42772 80.435 7.85419C79.882 8.28066 79.4131 8.87298 79.0284 9.63115C78.6436 10.3893 78.3431 11.2778 78.1266 12.2966C77.9343 13.3154 77.8381 14.429 77.8381 15.6373C77.8381 17.4616 78.0665 18.8951 78.5234 19.9376C79.0043 20.98 79.6055 21.7145 80.3268 22.141C81.0723 22.5675 81.8417 22.7807 82.6352 22.7807C83.3085 22.7807 84.078 22.603 84.9436 22.2476C85.8093 21.8685 86.6148 21.0867 87.3602 19.902L87.9734 20.1152C87.7089 20.9919 87.2761 21.8685 86.6749 22.7452C86.0738 23.6218 85.2923 24.3444 84.3305 24.9131C83.3686 25.458 82.1904 25.7305 80.7957 25.7305C79.2327 25.7305 77.8141 25.3988 76.5396 24.7354C75.2893 24.0483 74.2793 23.0058 73.5099 21.6079C72.7645 20.1863 72.3917 18.362 72.3917 16.1348C72.3917 14.0025 72.7765 12.2137 73.5459 10.7684C74.3394 9.29945 75.4095 8.19773 76.756 7.46326C78.1026 6.72878 79.6295 6.36154 81.3368 6.36154Z" fill="#3A3A3C"/>
<path d="M111.746 6.89463V7.64095C110.904 7.64095 110.303 7.81865 109.943 8.17404C109.606 8.52944 109.438 9.20468 109.438 10.1998V21.9278C109.438 22.9229 109.606 23.5981 109.943 23.9535C110.303 24.3089 110.904 24.4866 111.746 24.4866V25.2329C111.289 25.2092 110.592 25.1855 109.654 25.1618C108.74 25.1144 107.851 25.0908 106.985 25.0908C106.071 25.0908 105.169 25.1144 104.28 25.1618C103.414 25.1855 102.753 25.2092 102.296 25.2329V24.4866C103.017 24.4866 103.522 24.3089 103.811 23.9535C104.099 23.5981 104.244 22.9229 104.244 21.9278V10.1998C104.244 9.20468 104.099 8.52944 103.811 8.17404C103.522 7.81865 103.017 7.64095 102.296 7.64095V6.89463C102.729 6.91832 103.366 6.95386 104.208 7.00124C105.049 7.02494 105.903 7.03678 106.769 7.03678C107.706 7.03678 108.644 7.02494 109.582 7.00124C110.544 6.95386 111.265 6.91832 111.746 6.89463ZM99.3023 6.89463V7.64095C98.605 7.64095 98.1 7.81865 97.7874 8.17404C97.4989 8.52944 97.3546 9.20468 97.3546 10.1998V21.9278C97.3546 22.9229 97.4989 23.5981 97.7874 23.9535C98.1 24.3089 98.605 24.4866 99.3023 24.4866V25.2329C98.8695 25.2092 98.2323 25.1855 97.3907 25.1618C96.5731 25.1144 95.7195 25.0908 94.8298 25.0908C93.9161 25.0908 92.9783 25.1144 92.0165 25.1618C91.0546 25.1855 90.3333 25.2092 89.8523 25.2329V24.4866C90.6939 24.4866 91.2831 24.3089 91.6197 23.9535C91.9804 23.5981 92.1607 22.9229 92.1607 21.9278V10.1998C92.1607 9.20468 91.9804 8.52944 91.6197 8.17404C91.2831 7.81865 90.6939 7.64095 89.8523 7.64095V6.89463C90.3092 6.91832 90.9945 6.95386 91.9082 7.00124C92.846 7.02494 93.7477 7.03678 94.6134 7.03678C95.5512 7.03678 96.4529 7.02494 97.3185 7.00124C98.2082 6.95386 98.8695 6.91832 99.3023 6.89463ZM104.677 9.06252L105.29 9.41792L96.7054 23.7403L96.0922 23.3849L104.677 9.06252Z" fill="#3A3A3C"/>
<path d="M138.411 6.85909V7.60541C137.833 7.60541 137.389 7.68834 137.076 7.85419C136.763 7.99635 136.547 8.26881 136.427 8.67159C136.307 9.05068 136.246 9.60746 136.246 10.3419V21.7501C136.246 22.4845 136.307 23.0532 136.427 23.4559C136.547 23.835 136.763 24.1075 137.076 24.2733C137.389 24.4155 137.833 24.4866 138.411 24.4866V25.2329C137.906 25.2092 137.232 25.1855 136.391 25.1618C135.549 25.1144 134.671 25.0908 133.758 25.0908C132.772 25.0908 131.81 25.1144 130.872 25.1618C129.934 25.1855 129.201 25.2092 128.672 25.2329V24.4866C129.297 24.4866 129.778 24.4155 130.115 24.2733C130.475 24.1075 130.716 23.835 130.836 23.4559C130.98 23.0532 131.053 22.4845 131.053 21.7501V8.92037L124.163 25.4106H123.586L116.697 9.1336V20.1863C116.697 21.1104 116.781 21.8922 116.95 22.5319C117.118 23.1479 117.443 23.6218 117.924 23.9535C118.405 24.2852 119.114 24.4747 120.052 24.5221V25.2329C119.066 25.1618 117.827 25.1263 116.337 25.1263C115.832 25.1263 115.303 25.1381 114.75 25.1618C114.221 25.1618 113.776 25.1855 113.415 25.2329V24.5221C114.112 24.4747 114.641 24.2733 115.002 23.918C115.363 23.5389 115.603 23.0176 115.723 22.3542C115.844 21.6908 115.904 20.8971 115.904 19.9731V10.6263C115.904 9.74962 115.844 9.10991 115.723 8.70713C115.603 8.28066 115.363 7.99635 115.002 7.85419C114.641 7.68834 114.112 7.59357 113.415 7.56987V6.85909C113.776 6.88278 114.221 6.90647 114.75 6.93016C115.303 6.95386 115.832 6.96571 116.337 6.96571C118.188 6.96571 119.799 6.93017 121.17 6.85909L126.292 19.5466L124.993 21.5368L131.053 6.96571C131.485 6.96571 131.966 6.97755 132.495 7.00124C133.024 7.00124 133.517 7.00124 133.974 7.00124C134.84 7.00124 135.669 6.9894 136.463 6.96571C137.28 6.91832 137.93 6.88278 138.411 6.85909Z" fill="#3A3A3C"/>
<path d="M149.598 6.36154C151.353 6.36154 152.892 6.68139 154.215 7.3211C155.537 7.9608 156.571 8.99144 157.316 10.413C158.062 11.8346 158.435 13.7182 158.435 16.0638C158.435 18.4094 158.062 20.2929 157.316 21.7145C156.571 23.1124 155.537 24.1312 154.215 24.7709C152.892 25.4106 151.353 25.7305 149.598 25.7305C147.891 25.7305 146.364 25.4106 145.017 24.7709C143.695 24.1312 142.649 23.1124 141.879 21.7145C141.134 20.2929 140.761 18.4094 140.761 16.0638C140.761 13.7182 141.134 11.8346 141.879 10.413C142.649 8.99144 143.695 7.9608 145.017 7.3211C146.364 6.68139 147.891 6.36154 149.598 6.36154ZM149.598 7.07232C148.636 7.07232 147.83 7.78311 147.181 9.20468C146.532 10.6026 146.207 12.8889 146.207 16.0638C146.207 19.2386 146.532 21.525 147.181 22.9229C147.83 24.3207 148.636 25.0197 149.598 25.0197C150.584 25.0197 151.389 24.3207 152.014 22.9229C152.664 21.525 152.988 19.2386 152.988 16.0638C152.988 12.8889 152.664 10.6026 152.014 9.20468C151.389 7.78311 150.584 7.07232 149.598 7.07232Z" fill="#3A3A3C"/>
<path d="M171.146 6.89463C173.887 6.89463 175.787 7.28556 176.845 8.06742C177.903 8.84929 178.432 9.85623 178.432 11.0883C178.432 12.3914 177.723 13.5049 176.304 14.429C174.885 15.353 172.673 15.815 169.667 15.815C169.667 15.815 169.511 15.7795 169.199 15.7084C168.91 15.6373 168.766 15.6018 168.766 15.6018C169.992 15.5781 170.918 15.4122 171.543 15.1042C172.168 14.7962 172.589 14.346 172.805 13.7537C173.046 13.1377 173.166 12.3795 173.166 11.4792C173.166 10.413 172.974 9.51269 172.589 8.77821C172.204 8.02004 171.363 7.64095 170.064 7.64095C169.367 7.64095 168.874 7.8068 168.585 8.1385C168.321 8.4702 168.189 9.1573 168.189 10.1998V21.9278C168.189 22.9702 168.333 23.6573 168.621 23.989C168.91 24.3207 169.427 24.4866 170.172 24.4866C171.182 24.4866 171.964 24.297 172.517 23.918C173.07 23.5152 173.443 23.0058 173.635 22.3898C173.851 21.7501 173.96 21.0748 173.96 20.364C173.96 18.8714 173.599 17.817 172.878 17.201C172.18 16.585 171.122 16.277 169.704 16.277H165.52C165.52 16.277 165.52 16.1704 165.52 15.9571C165.52 15.7202 165.52 15.6018 165.52 15.6018H170.389L171.002 15.6728C174.08 15.6728 176.232 16.0756 177.458 16.8812C178.685 17.663 179.298 18.8121 179.298 20.3285C179.298 21.2762 179.057 22.1291 178.576 22.8873C178.096 23.6218 177.29 24.2023 176.16 24.6287C175.054 25.0315 173.551 25.2329 171.651 25.2329C170.906 25.2329 170.004 25.2092 168.946 25.1618C167.888 25.1144 166.782 25.0908 165.628 25.0908C164.738 25.0908 163.812 25.1144 162.85 25.1618C161.889 25.1855 161.167 25.2092 160.686 25.2329V24.4866C161.528 24.4866 162.117 24.3089 162.454 23.9535C162.814 23.5981 162.995 22.9229 162.995 21.9278V10.1998C162.995 9.20468 162.814 8.52944 162.454 8.17404C162.117 7.81865 161.528 7.64095 160.686 7.64095V6.89463C161.143 6.91832 161.829 6.95386 162.742 7.00124C163.68 7.02494 164.57 7.03678 165.411 7.03678C166.493 7.03678 167.527 7.01309 168.513 6.96571C169.523 6.91832 170.401 6.89463 171.146 6.89463Z" fill="#3A3A3C"/>
<path d="M186.124 25.4817C184.512 25.4817 183.346 25.0671 182.625 24.2378C181.903 23.4086 181.543 22.4016 181.543 21.217C181.543 20.1982 181.771 19.3689 182.228 18.7292C182.709 18.0895 183.322 17.5683 184.068 17.1655C184.813 16.739 185.594 16.3955 186.412 16.1348C187.254 15.8505 188.047 15.5781 188.793 15.3174C189.562 15.0331 190.175 14.7133 190.632 14.3579C191.113 14.0025 191.353 13.5523 191.353 13.0074V10.2353C191.353 9.61931 191.245 9.07437 191.029 8.60051C190.836 8.10296 190.524 7.72388 190.091 7.46326C189.682 7.20263 189.141 7.07232 188.468 7.07232C187.987 7.07232 187.506 7.1434 187.025 7.28556C186.544 7.40402 186.148 7.61726 185.835 7.92527C186.508 8.16219 187.025 8.52944 187.386 9.02699C187.771 9.50084 187.963 10.0458 187.963 10.6618C187.963 11.4674 187.674 12.1071 187.097 12.5809C186.544 13.0548 185.883 13.2917 185.114 13.2917C184.248 13.2917 183.587 13.0311 183.13 12.5098C182.697 11.9649 182.481 11.3133 182.481 10.5552C182.481 9.86808 182.649 9.29945 182.986 8.84929C183.346 8.39912 183.839 7.97265 184.464 7.56987C185.138 7.19079 185.943 6.89463 186.881 6.68139C187.843 6.46816 188.877 6.36154 189.983 6.36154C191.089 6.36154 192.087 6.48 192.977 6.71693C193.866 6.93017 194.612 7.33294 195.213 7.92527C195.766 8.4702 196.127 9.14545 196.295 9.95101C196.463 10.7329 196.547 11.728 196.547 12.9363V22.603C196.547 23.1716 196.607 23.5744 196.728 23.8113C196.848 24.0483 197.052 24.1667 197.341 24.1667C197.581 24.1667 197.81 24.1075 198.026 23.989C198.243 23.8706 198.447 23.7284 198.639 23.5626L199 24.1667C198.495 24.5932 197.906 24.9249 197.233 25.1618C196.583 25.3751 195.85 25.4817 195.032 25.4817C193.59 25.4817 192.628 25.1974 192.147 24.6287C191.69 24.0364 191.45 23.3612 191.426 22.603C190.824 23.5744 190.079 24.297 189.189 24.7709C188.324 25.2448 187.302 25.4817 186.124 25.4817ZM188.901 23.2072C189.358 23.2072 189.778 23.1005 190.163 22.8873C190.572 22.6741 190.969 22.295 191.353 21.7501V14.4645C191.065 14.9384 190.656 15.3411 190.127 15.6728C189.622 15.9808 189.093 16.3244 188.54 16.7035C188.011 17.0589 187.566 17.5209 187.206 18.0895C186.845 18.6581 186.665 19.4163 186.665 20.364C186.665 21.3828 186.881 22.1173 187.314 22.5675C187.747 22.9939 188.276 23.2072 188.901 23.2072Z" fill="#3A3A3C"/>
<path d="M7.10037 47.0134V46.6834C7.45762 46.6614 7.72556 46.6174 7.90419 46.5514C8.08281 46.4854 8.20003 46.3534 8.25585 46.1554C8.32284 45.9574 8.35633 45.6604 8.35633 45.2644V37.0802C8.35633 36.6732 8.32284 36.3762 8.25585 36.1892C8.20003 35.9912 8.07723 35.8592 7.88744 35.7932C7.70881 35.7162 7.44646 35.6722 7.10037 35.6612V35.3312C7.4018 35.3422 7.79254 35.3531 8.2726 35.3642C8.76382 35.3752 9.24946 35.3806 9.72952 35.3806C10.2431 35.3806 10.7231 35.3752 11.1697 35.3642C11.6274 35.3531 11.9958 35.3422 12.2749 35.3312V35.6612C11.9177 35.6722 11.6442 35.7162 11.4544 35.7932C11.2757 35.8592 11.1585 35.9912 11.1027 36.1892C11.0469 36.3762 11.019 36.6732 11.019 37.0802V45.2644C11.019 45.6604 11.0469 45.9574 11.1027 46.1554C11.1697 46.3534 11.2925 46.4854 11.4711 46.5514C11.6497 46.6174 11.9177 46.6614 12.2749 46.6834V47.0134C11.9958 46.9914 11.6274 46.9804 11.1697 46.9804C10.7231 46.9694 10.2431 46.9639 9.72952 46.9639C9.24946 46.9639 8.76382 46.9694 8.2726 46.9804C7.79254 46.9804 7.4018 46.9914 7.10037 47.0134ZM0 47.0134V46.6834C0.357251 46.6614 0.62519 46.6174 0.803816 46.5514C0.982441 46.4854 1.09966 46.3534 1.15548 46.1554C1.22247 45.9574 1.25596 45.6604 1.25596 45.2644V37.0802C1.25596 36.6732 1.22247 36.3762 1.15548 36.1892C1.09966 35.9912 0.976859 35.8592 0.787069 35.7932C0.608443 35.7162 0.346087 35.6722 0 35.6612V35.3312C0.290267 35.3422 0.664264 35.3531 1.12199 35.3642C1.59088 35.3752 2.09885 35.3806 2.64589 35.3806C3.11478 35.3806 3.5781 35.3752 4.03582 35.3642C4.49355 35.3531 4.87313 35.3422 5.17456 35.3312V35.6612C4.81731 35.6722 4.54379 35.7162 4.354 35.7932C4.17537 35.8592 4.05815 35.9912 4.00233 36.1892C3.94651 36.3762 3.9186 36.6732 3.9186 37.0802V45.2644C3.9186 45.6604 3.94651 45.9574 4.00233 46.1554C4.06932 46.3534 4.19212 46.4854 4.37075 46.5514C4.54937 46.6174 4.81731 46.6614 5.17456 46.6834V47.0134C4.87313 46.9914 4.49355 46.9804 4.03582 46.9804C3.5781 46.9694 3.11478 46.9639 2.64589 46.9639C2.09885 46.9639 1.59088 46.9694 1.12199 46.9804C0.664264 46.9804 0.290267 46.9914 0 47.0134ZM2.8301 41.3043V40.9743H9.44483V41.3043H2.8301Z" fill="#3A3A3C"/>
<path d="M15.3386 47.1289C14.5906 47.1289 14.0491 46.9364 13.7142 46.5514C13.3793 46.1664 13.2118 45.6989 13.2118 45.1489C13.2118 44.6759 13.3179 44.2909 13.53 43.9939C13.7533 43.6968 14.0379 43.4548 14.384 43.2678C14.7301 43.0698 15.093 42.9103 15.4725 42.7893C15.8633 42.6573 16.2317 42.5308 16.5778 42.4098C16.935 42.2778 17.2197 42.1293 17.4318 41.9643C17.6551 41.7993 17.7668 41.5903 17.7668 41.3373V40.0503C17.7668 39.7643 17.7165 39.5112 17.616 39.2912C17.5267 39.0602 17.3816 38.8842 17.1806 38.7632C16.9908 38.6422 16.7397 38.5817 16.4271 38.5817C16.2038 38.5817 15.9805 38.6147 15.7572 38.6807C15.5339 38.7357 15.3497 38.8347 15.2046 38.9777C15.5172 39.0877 15.7572 39.2582 15.9247 39.4892C16.1033 39.7093 16.1926 39.9623 16.1926 40.2483C16.1926 40.6223 16.0586 40.9193 15.7907 41.1393C15.5339 41.3593 15.2269 41.4693 14.8697 41.4693C14.4678 41.4693 14.1607 41.3483 13.9486 41.1063C13.7477 40.8533 13.6472 40.5508 13.6472 40.1988C13.6472 39.8798 13.7254 39.6157 13.8816 39.4067C14.0491 39.1977 14.278 38.9997 14.5682 38.8127C14.8808 38.6367 15.2548 38.4992 15.6902 38.4002C16.1368 38.3012 16.6169 38.2517 17.1304 38.2517C17.6439 38.2517 18.1073 38.3067 18.5203 38.4167C18.9334 38.5157 19.2795 38.7027 19.5586 38.9777C19.8154 39.2307 19.9828 39.5443 20.061 39.9183C20.1391 40.2813 20.1782 40.7433 20.1782 41.3043V45.7924C20.1782 46.0564 20.2061 46.2434 20.2619 46.3534C20.3178 46.4634 20.4126 46.5184 20.5466 46.5184C20.6583 46.5184 20.7643 46.4909 20.8648 46.4359C20.9653 46.3809 21.0602 46.3149 21.1495 46.2379L21.3169 46.5184C21.0825 46.7164 20.809 46.8704 20.4964 46.9804C20.1949 47.0794 19.8544 47.1289 19.4749 47.1289C18.805 47.1289 18.3585 46.9969 18.1352 46.7329C17.9231 46.4579 17.8114 46.1444 17.8002 45.7924C17.5211 46.2434 17.1751 46.5789 16.762 46.7989C16.3601 47.0189 15.8856 47.1289 15.3386 47.1289ZM16.628 46.0729C16.8401 46.0729 17.0355 46.0234 17.2141 45.9244C17.4039 45.8254 17.5881 45.6494 17.7668 45.3964V42.0138C17.6328 42.2338 17.443 42.4208 17.1974 42.5748C16.9629 42.7178 16.7173 42.8773 16.4606 43.0533C16.2149 43.2183 16.0084 43.4328 15.8409 43.6968C15.6735 43.9609 15.5898 44.3129 15.5898 44.7529C15.5898 45.2259 15.6902 45.5669 15.8912 45.7759C16.0921 45.9739 16.3377 46.0729 16.628 46.0729Z" fill="#3A3A3C"/>
<path d="M30.7212 38.4992C30.6766 38.9612 30.6431 39.4067 30.6207 39.8358C30.6096 40.2538 30.604 40.5783 30.604 40.8093C30.604 41.0183 30.6096 41.2273 30.6207 41.4363C30.6319 41.6343 30.6431 41.7993 30.6542 41.9313H30.2691C30.1351 41.1393 29.9509 40.5178 29.7164 40.0668C29.482 39.6157 29.2196 39.2967 28.9294 39.1097C28.6503 38.9227 28.3488 38.8292 28.0251 38.8292H27.4725V45.3139C27.4725 45.8529 27.612 46.2159 27.8911 46.4029C28.1814 46.5789 28.5665 46.6669 29.0466 46.6669V47.0134C28.7675 47.0024 28.3768 46.9914 27.8744 46.9804C27.3831 46.9584 26.8528 46.9474 26.2835 46.9474C25.7253 46.9474 25.1894 46.9584 24.6759 46.9804C24.1735 46.9914 23.7771 47.0024 23.4869 47.0134V46.6669C23.9893 46.6669 24.3744 46.5954 24.6424 46.4524C24.9215 46.2984 25.061 45.9519 25.061 45.4129V38.8292H24.4414C24.14 38.8292 23.8497 38.9227 23.5706 39.1097C23.2915 39.2967 23.0403 39.6157 22.817 40.0668C22.6049 40.5178 22.4263 41.1393 22.2812 41.9313H21.896C21.9183 41.7993 21.9295 41.6343 21.9295 41.4363C21.9406 41.2383 21.9462 41.0293 21.9462 40.8093C21.9462 40.5783 21.9351 40.2538 21.9127 39.8358C21.9016 39.4067 21.8737 38.9612 21.829 38.4992H23.6041C23.9167 38.4992 24.313 38.5102 24.7931 38.5322C25.2731 38.5432 25.7588 38.5487 26.25 38.5487C26.7635 38.5487 27.2603 38.5432 27.7404 38.5322C28.2316 38.5102 28.6335 38.4992 28.9461 38.4992H30.7212Z" fill="#3A3A3C"/>
<path d="M33.7691 47.1289C33.0211 47.1289 32.4797 46.9364 32.1448 46.5514C31.8098 46.1664 31.6424 45.6989 31.6424 45.1489C31.6424 44.6759 31.7484 44.2909 31.9606 43.9939C32.1838 43.6968 32.4685 43.4548 32.8146 43.2678C33.1607 43.0698 33.5235 42.9103 33.9031 42.7893C34.2939 42.6573 34.6623 42.5308 35.0084 42.4098C35.3656 42.2778 35.6503 42.1293 35.8624 41.9643C36.0857 41.7993 36.1973 41.5903 36.1973 41.3373V40.0503C36.1973 39.7643 36.1471 39.5112 36.0466 39.2912C35.9573 39.0602 35.8122 38.8842 35.6112 38.7632C35.4214 38.6422 35.1702 38.5817 34.8576 38.5817C34.6344 38.5817 34.4111 38.6147 34.1878 38.6807C33.9645 38.7357 33.7803 38.8347 33.6352 38.9777C33.9478 39.0877 34.1878 39.2582 34.3553 39.4892C34.5339 39.7093 34.6232 39.9623 34.6232 40.2483C34.6232 40.6223 34.4892 40.9193 34.2213 41.1393C33.9645 41.3593 33.6575 41.4693 33.3003 41.4693C32.8983 41.4693 32.5913 41.3483 32.3792 41.1063C32.1783 40.8533 32.0778 40.5508 32.0778 40.1988C32.0778 39.8798 32.1559 39.6157 32.3122 39.4067C32.4797 39.1977 32.7085 38.9997 32.9988 38.8127C33.3114 38.6367 33.6854 38.4992 34.1208 38.4002C34.5674 38.3012 35.0474 38.2517 35.561 38.2517C36.0745 38.2517 36.5378 38.3067 36.9509 38.4167C37.364 38.5157 37.7101 38.7027 37.9892 38.9777C38.2459 39.2307 38.4134 39.5443 38.4916 39.9183C38.5697 40.2813 38.6088 40.7433 38.6088 41.3043V45.7924C38.6088 46.0564 38.6367 46.2434 38.6925 46.3534C38.7483 46.4634 38.8432 46.5184 38.9772 46.5184C39.0888 46.5184 39.1949 46.4909 39.2954 46.4359C39.3959 46.3809 39.4907 46.3149 39.5801 46.2379L39.7475 46.5184C39.5131 46.7164 39.2396 46.8704 38.927 46.9804C38.6255 47.0794 38.285 47.1289 37.9054 47.1289C37.2356 47.1289 36.789 46.9969 36.5658 46.7329C36.3536 46.4579 36.242 46.1444 36.2308 45.7924C35.9517 46.2434 35.6056 46.5789 35.1926 46.7989C34.7907 47.0189 34.3162 47.1289 33.7691 47.1289ZM35.0586 46.0729C35.2707 46.0729 35.4661 46.0234 35.6447 45.9244C35.8345 45.8254 36.0187 45.6494 36.1973 45.3964V42.0138C36.0634 42.2338 35.8736 42.4208 35.628 42.5748C35.3935 42.7178 35.1479 42.8773 34.8911 43.0533C34.6455 43.2183 34.439 43.4328 34.2715 43.6968C34.1041 43.9609 34.0203 44.3129 34.0203 44.7529C34.0203 45.2259 34.1208 45.5669 34.3218 45.7759C34.5227 45.9739 34.7683 46.0729 35.0586 46.0729Z" fill="#3A3A3C"/>
<path d="M49.537 38.4992V38.8457C49.1797 38.8457 48.9285 38.9282 48.7834 39.0932C48.6382 39.2582 48.5657 39.5718 48.5657 40.0338V45.4789C48.5657 45.9409 48.6382 46.2544 48.7834 46.4194C48.9397 46.5844 49.1909 46.6669 49.537 46.6669V47.0134C49.336 47.0024 49.0402 46.9914 48.6494 46.9804C48.2587 46.9584 47.84 46.9474 47.3934 46.9474C46.9469 46.9474 46.4892 46.9584 46.0203 46.9804C45.5514 46.9914 45.1941 47.0024 44.9485 47.0134V46.6669C45.3616 46.6669 45.663 46.5844 45.8528 46.4194C46.0538 46.2544 46.1542 45.9409 46.1542 45.4789V40.0338C46.1542 39.5718 46.0873 39.2582 45.9533 39.0932C45.8193 38.9282 45.5849 38.8457 45.2499 38.8457H45.0992C44.7978 38.8457 44.608 38.9337 44.5299 39.1097C44.4629 39.2747 44.4071 39.5827 44.3624 40.0338C44.2731 41.0568 44.1614 42.0413 44.0275 42.9873C43.9047 43.9334 43.6981 44.7804 43.4079 45.5284C43.1957 46.0344 42.9334 46.4469 42.6208 46.7659C42.3082 47.0849 41.923 47.2444 41.4653 47.2444C41.2197 47.2444 40.9741 47.1949 40.7285 47.0959C40.4829 46.9969 40.2763 46.8374 40.1089 46.6174C39.9414 46.3864 39.8577 46.0949 39.8577 45.7429C39.8577 45.3249 39.9805 45.0004 40.2261 44.7694C40.4829 44.5274 40.801 44.4064 41.1806 44.4064C41.5714 44.4064 41.8728 44.5219 42.0849 44.7529C42.297 44.9839 42.4031 45.2644 42.4031 45.5944C42.4031 45.9354 42.3026 46.2104 42.1017 46.4194C41.9007 46.6284 41.6439 46.7989 41.3313 46.9309C41.3537 46.9419 41.3872 46.9529 41.4318 46.9639C41.4765 46.9639 41.5155 46.9639 41.549 46.9639C41.817 46.9639 42.0458 46.8869 42.2356 46.7329C42.4254 46.5789 42.5929 46.3864 42.738 46.1554C42.8832 45.9134 43.006 45.6769 43.1064 45.4459C43.2962 44.9729 43.4469 44.4394 43.5586 43.8454C43.6814 43.2403 43.7819 42.6078 43.86 41.9478C43.9382 41.2878 43.9996 40.6498 44.0442 40.0338C44.0777 39.5718 43.9772 39.2582 43.7428 39.0932C43.5195 38.9282 43.179 38.8457 42.7213 38.8457V38.4992C42.8106 38.5102 42.9501 38.5212 43.1399 38.5322C43.3409 38.5322 43.553 38.5322 43.7763 38.5322C44.0219 38.5322 44.2563 38.5322 44.4796 38.5322C44.7029 38.5212 44.9876 38.5157 45.3337 38.5157C45.7914 38.5157 46.1654 38.5267 46.4557 38.5487C46.7571 38.5597 47.0976 38.5652 47.4772 38.5652C47.8344 38.5652 48.214 38.5597 48.6159 38.5487C49.029 38.5267 49.336 38.5102 49.537 38.4992Z" fill="#3A3A3C"/>
<path d="M54.9359 38.4992V38.8457C54.5451 38.8457 54.266 38.9282 54.0986 39.0932C53.9423 39.2582 53.8641 39.5718 53.8641 40.0338V45.8254C53.8641 46.1554 53.9255 46.3809 54.0483 46.5019C54.1712 46.6119 54.4 46.6669 54.7349 46.6669C55.2262 46.6669 55.6002 46.5679 55.8569 46.3699C56.1249 46.1719 56.3091 45.9134 56.4096 45.5944C56.51 45.2644 56.5603 44.9179 56.5603 44.5549C56.5603 43.7848 56.3761 43.2293 56.0076 42.8883C55.6504 42.5473 55.0308 42.3768 54.1488 42.3768C53.9367 42.3768 53.7134 42.3823 53.479 42.3933C53.2445 42.4043 53.038 42.4098 52.8594 42.4098L52.8259 42.0798C53.2948 42.0798 53.7246 42.0743 54.1153 42.0633C54.5172 42.0523 54.8857 42.0468 55.2206 42.0468C56.5714 42.0468 57.5427 42.2723 58.1344 42.7233C58.7373 43.1743 59.0387 43.7353 59.0387 44.4064C59.0387 44.8134 58.9047 45.2204 58.6368 45.6274C58.38 46.0234 57.9502 46.3534 57.3473 46.6174C56.7556 46.8814 55.9518 47.0134 54.9359 47.0134C54.601 47.0134 54.2493 47.0024 53.8809 46.9804C53.5125 46.9584 53.105 46.9474 52.6584 46.9474C52.2677 46.9474 51.8546 46.9584 51.4192 46.9804C50.995 46.9914 50.6824 47.0024 50.4814 47.0134V46.6669C50.8387 46.6669 51.0899 46.5844 51.235 46.4194C51.3801 46.2544 51.4527 45.9409 51.4527 45.4789V40.0338C51.4527 39.5718 51.3857 39.2582 51.2517 39.0932C51.1178 38.9282 50.8833 38.8457 50.5484 38.8457V38.4992C50.7382 38.5102 51.0285 38.5267 51.4192 38.5487C51.8099 38.5597 52.2118 38.5652 52.6249 38.5652C53.0492 38.5652 53.4846 38.5597 53.9311 38.5487C54.3777 38.5267 54.7126 38.5102 54.9359 38.4992Z" fill="#3A3A3C"/>
<path d="M68.5947 38.4992V38.8457C68.2486 38.8457 67.9975 38.9282 67.8412 39.0932C67.696 39.2582 67.6235 39.5718 67.6235 40.0338V45.4789C67.6235 45.9409 67.6904 46.2544 67.8244 46.4194C67.9695 46.5844 68.204 46.6669 68.5277 46.6669V47.0134C68.3268 47.0024 68.031 46.9914 67.6402 46.9804C67.2606 46.9584 66.8643 46.9474 66.4512 46.9474C66.0493 46.9474 65.6307 46.9584 65.1953 46.9804C64.771 46.9914 64.4529 47.0024 64.2407 47.0134V46.6669C64.598 46.6669 64.8492 46.5844 64.9943 46.4194C65.1394 46.2544 65.212 45.9409 65.212 45.4789V39.6873C65.212 39.3572 65.1506 39.1372 65.0278 39.0272C64.9162 38.9062 64.704 38.8457 64.3914 38.8457C63.9226 38.8457 63.5653 38.9337 63.3197 39.1097C63.0741 39.2857 62.9066 39.5222 62.8173 39.8193C62.728 40.1053 62.6833 40.4188 62.6833 40.7598C62.6833 41.4748 62.8508 41.9973 63.1857 42.3273C63.5206 42.6573 64.0956 42.8278 64.9106 42.8388C65.145 42.8388 65.3739 42.8388 65.5972 42.8388C65.8316 42.8278 66.0382 42.8223 66.2168 42.8223L66.2503 43.1688C65.7925 43.1688 65.3683 43.1743 64.9776 43.1853C64.598 43.1853 64.2519 43.1853 63.9393 43.1853C62.9457 43.1963 62.181 43.0918 61.6451 42.8718C61.1092 42.6408 60.7352 42.3493 60.5231 41.9973C60.3221 41.6343 60.2217 41.2548 60.2217 40.8588C60.2217 40.3748 60.3445 39.9568 60.5901 39.6048C60.8357 39.2527 61.2376 38.9832 61.7958 38.7962C62.3652 38.5982 63.1299 38.4992 64.09 38.4992C64.4808 38.4992 64.8492 38.5102 65.1953 38.5322C65.5525 38.5542 65.96 38.5652 66.4177 38.5652C66.8196 38.5652 67.2271 38.5597 67.6402 38.5487C68.0644 38.5267 68.3826 38.5102 68.5947 38.4992ZM64.9106 43.0368V43.1853C64.6203 43.1963 64.3468 43.2403 64.09 43.3173C63.8444 43.3833 63.6267 43.5153 63.4369 43.7133C63.1913 43.9554 63.0127 44.2634 62.901 44.6374C62.7894 45.0114 62.6554 45.4074 62.4991 45.8254C62.3317 46.2874 62.0749 46.6119 61.7288 46.7989C61.3827 46.9859 60.8692 47.0794 60.1882 47.0794C60.0319 47.0794 59.8644 47.0739 59.6858 47.0629C59.5072 47.0519 59.3118 47.0354 59.0997 47.0134V46.6669C59.5351 46.6339 59.8142 46.5514 59.937 46.4194C60.0709 46.2764 60.1937 46.0564 60.3054 45.7594C60.4617 45.3744 60.5845 45.0609 60.6738 44.8189C60.7743 44.5659 60.8692 44.3624 60.9585 44.2084C61.0478 44.0434 61.1539 43.9114 61.2767 43.8124C61.3995 43.6803 61.5837 43.5538 61.8293 43.4328C62.0749 43.3118 62.4377 43.2128 62.9178 43.1358C63.409 43.0588 64.0733 43.0258 64.9106 43.0368Z" fill="#3A3A3C"/>
<path d="M77.615 35.3312C77.8941 35.3422 78.2681 35.3531 78.737 35.3642C79.217 35.3752 79.6915 35.3806 80.1604 35.3806C80.6963 35.3806 81.2154 35.3752 81.7178 35.3642C82.2202 35.3531 82.5774 35.3476 82.7895 35.3476C84.1739 35.3476 85.2066 35.5897 85.8876 36.0737C86.5798 36.5577 86.9258 37.1792 86.9258 37.9382C86.9258 38.3232 86.8086 38.7137 86.5742 39.1097C86.3397 39.5057 85.9769 39.8578 85.4857 40.1658C84.9944 40.4738 84.3581 40.6993 83.5766 40.8423V40.8753C84.626 40.9523 85.4578 41.1393 86.0718 41.4363C86.6858 41.7333 87.1268 42.0908 87.3947 42.5088C87.6627 42.9268 87.7966 43.3613 87.7966 43.8124C87.7966 44.8464 87.3836 45.6384 86.5574 46.1884C85.7424 46.7384 84.6149 47.0134 83.1747 47.0134C82.9068 47.0134 82.516 47.0079 82.0025 46.9969C81.5001 46.9749 80.8972 46.9639 80.1939 46.9639C79.7027 46.9639 79.217 46.9694 78.737 46.9804C78.2681 46.9804 77.8941 46.9914 77.615 47.0134V46.6834C77.9722 46.6614 78.2402 46.6174 78.4188 46.5514C78.5974 46.4854 78.7146 46.3534 78.7705 46.1554C78.8374 45.9574 78.8709 45.6604 78.8709 45.2644V37.0802C78.8709 36.6732 78.8374 36.3762 78.7705 36.1892C78.7146 35.9912 78.5918 35.8592 78.402 35.7932C78.2234 35.7162 77.9611 35.6722 77.615 35.6612V35.3312ZM82.5718 35.6612C82.1364 35.6612 81.8518 35.7547 81.7178 35.9417C81.595 36.1287 81.5336 36.5082 81.5336 37.0802V45.2644C81.5336 45.8364 81.6061 46.2104 81.7513 46.3864C81.8964 46.5514 82.209 46.6339 82.6891 46.6339C83.4929 46.6339 84.079 46.3864 84.4474 45.8914C84.827 45.3854 85.0168 44.6704 85.0168 43.7463C85.0168 42.8993 84.7991 42.2448 84.3637 41.7828C83.9394 41.3208 83.2305 41.0898 82.2369 41.0898H80.8135C80.8135 41.0898 80.8135 41.0458 80.8135 40.9578C80.8135 40.8588 80.8135 40.8093 80.8135 40.8093H82.2537C82.7784 40.8093 83.1803 40.6883 83.4594 40.4463C83.7385 40.1933 83.9339 39.8633 84.0455 39.4562C84.1571 39.0382 84.213 38.5927 84.213 38.1197C84.213 37.3057 84.0846 36.6952 83.8278 36.2882C83.571 35.8702 83.1524 35.6612 82.5718 35.6612Z" fill="#3A3A3C"/>
<path d="M97.9279 38.4992V38.8457C97.5707 38.8457 97.3195 38.9282 97.1743 39.0932C97.0292 39.2582 96.9566 39.5718 96.9566 40.0338V45.4789C96.9566 45.9409 97.0292 46.2544 97.1743 46.4194C97.3306 46.5844 97.5818 46.6669 97.9279 46.6669V47.0134C97.727 47.0024 97.4311 46.9914 97.0404 46.9804C96.6496 46.9584 96.231 46.9474 95.7844 46.9474C95.3379 46.9474 94.8801 46.9584 94.4112 46.9804C93.9423 46.9914 93.5851 47.0024 93.3395 47.0134V46.6669C93.7525 46.6669 94.054 46.5844 94.2438 46.4194C94.4447 46.2544 94.5452 45.9409 94.5452 45.4789V40.0338C94.5452 39.5718 94.4782 39.2582 94.3442 39.0932C94.2103 38.9282 93.9758 38.8457 93.6409 38.8457H93.4902C93.1888 38.8457 92.999 38.9337 92.9208 39.1097C92.8538 39.2747 92.798 39.5827 92.7534 40.0338C92.6641 41.0568 92.5524 42.0413 92.4184 42.9873C92.2956 43.9334 92.0891 44.7804 91.7988 45.5284C91.5867 46.0344 91.3243 46.4469 91.0118 46.7659C90.6992 47.0849 90.314 47.2444 89.8563 47.2444C89.6107 47.2444 89.3651 47.1949 89.1194 47.0959C88.8738 46.9969 88.6673 46.8374 88.4998 46.6174C88.3324 46.3864 88.2486 46.0949 88.2486 45.7429C88.2486 45.3249 88.3714 45.0004 88.6171 44.7694C88.8738 44.5274 89.192 44.4064 89.5716 44.4064C89.9623 44.4064 90.2638 44.5219 90.4759 44.7529C90.688 44.9839 90.7941 45.2644 90.7941 45.5944C90.7941 45.9354 90.6936 46.2104 90.4926 46.4194C90.2917 46.6284 90.0349 46.7989 89.7223 46.9309C89.7446 46.9419 89.7781 46.9529 89.8228 46.9639C89.8674 46.9639 89.9065 46.9639 89.94 46.9639C90.2079 46.9639 90.4368 46.8869 90.6266 46.7329C90.8164 46.5789 90.9838 46.3864 91.129 46.1554C91.2741 45.9134 91.3969 45.6769 91.4974 45.4459C91.6872 44.9729 91.8379 44.4394 91.9495 43.8454C92.0723 43.2403 92.1728 42.6078 92.251 41.9478C92.3291 41.2878 92.3905 40.6498 92.4352 40.0338C92.4687 39.5718 92.3682 39.2582 92.1338 39.0932C91.9105 38.9282 91.57 38.8457 91.1122 38.8457V38.4992C91.2015 38.5102 91.3411 38.5212 91.5309 38.5322C91.7318 38.5322 91.944 38.5322 92.1672 38.5322C92.4129 38.5322 92.6473 38.5322 92.8706 38.5322C93.0939 38.5212 93.3786 38.5157 93.7246 38.5157C94.1824 38.5157 94.5564 38.5267 94.8466 38.5487C95.1481 38.5597 95.4886 38.5652 95.8681 38.5652C96.2254 38.5652 96.605 38.5597 97.0069 38.5487C97.42 38.5267 97.727 38.5102 97.9279 38.4992Z" fill="#3A3A3C"/>
<path d="M101.016 47.1289C100.268 47.1289 99.7264 46.9364 99.3915 46.5514C99.0566 46.1664 98.8891 45.6989 98.8891 45.1489C98.8891 44.6759 98.9952 44.2909 99.2073 43.9939C99.4306 43.6968 99.7153 43.4548 100.061 43.2678C100.407 43.0698 100.77 42.9103 101.15 42.7893C101.541 42.6573 101.909 42.5308 102.255 42.4098C102.612 42.2778 102.897 42.1293 103.109 41.9643C103.332 41.7993 103.444 41.5903 103.444 41.3373V40.0503C103.444 39.7643 103.394 39.5112 103.293 39.2912C103.204 39.0602 103.059 38.8842 102.858 38.7632C102.668 38.6422 102.417 38.5817 102.104 38.5817C101.881 38.5817 101.658 38.6147 101.435 38.6807C101.211 38.7357 101.027 38.8347 100.882 38.9777C101.195 39.0877 101.435 39.2582 101.602 39.4892C101.781 39.7093 101.87 39.9623 101.87 40.2483C101.87 40.6223 101.736 40.9193 101.468 41.1393C101.211 41.3593 100.904 41.4693 100.547 41.4693C100.145 41.4693 99.8381 41.3483 99.626 41.1063C99.425 40.8533 99.3245 40.5508 99.3245 40.1988C99.3245 39.8798 99.4027 39.6157 99.559 39.4067C99.7264 39.1977 99.9553 38.9997 100.246 38.8127C100.558 38.6367 100.932 38.4992 101.368 38.4002C101.814 38.3012 102.294 38.2517 102.808 38.2517C103.321 38.2517 103.785 38.3067 104.198 38.4167C104.611 38.5157 104.957 38.7027 105.236 38.9777C105.493 39.2307 105.66 39.5443 105.738 39.9183C105.816 40.2813 105.856 40.7433 105.856 41.3043V45.7924C105.856 46.0564 105.883 46.2434 105.939 46.3534C105.995 46.4634 106.09 46.5184 106.224 46.5184C106.336 46.5184 106.442 46.4909 106.542 46.4359C106.643 46.3809 106.737 46.3149 106.827 46.2379L106.994 46.5184C106.76 46.7164 106.486 46.8704 106.174 46.9804C105.872 47.0794 105.532 47.1289 105.152 47.1289C104.482 47.1289 104.036 46.9969 103.812 46.7329C103.6 46.4579 103.489 46.1444 103.478 45.7924C103.198 46.2434 102.852 46.5789 102.439 46.7989C102.037 47.0189 101.563 47.1289 101.016 47.1289ZM102.305 46.0729C102.517 46.0729 102.713 46.0234 102.891 45.9244C103.081 45.8254 103.265 45.6494 103.444 45.3964V42.0138C103.31 42.2338 103.12 42.4208 102.875 42.5748C102.64 42.7178 102.395 42.8773 102.138 43.0533C101.892 43.2183 101.686 43.4328 101.518 43.6968C101.351 43.9609 101.267 44.3129 101.267 44.7529C101.267 45.2259 101.368 45.5669 101.569 45.7759C101.769 45.9739 102.015 46.0729 102.305 46.0729Z" fill="#3A3A3C"/>
<path d="M115.578 38.4992V38.8457C115.221 38.8457 114.97 38.9282 114.824 39.0932C114.679 39.2472 114.607 39.5552 114.607 40.0173V45.4789C114.607 45.9409 114.702 46.2544 114.891 46.4194C115.092 46.5844 115.45 46.6669 115.963 46.6669C115.918 47.0519 115.885 47.4204 115.863 47.7724C115.852 48.1245 115.846 48.394 115.846 48.581C115.846 49.01 115.863 49.351 115.896 49.604H115.511C115.411 48.955 115.271 48.438 115.092 48.053C114.914 47.6679 114.668 47.3929 114.356 47.2279C114.054 47.0629 113.658 46.9804 113.167 46.9804C112.843 46.9804 112.525 46.9859 112.212 46.9969C111.911 46.9969 111.581 47.0024 111.224 47.0134C110.867 47.0134 110.448 47.0134 109.968 47.0134C109.477 47.0134 109.075 47.0904 108.762 47.2444C108.461 47.4094 108.221 47.6789 108.042 48.053C107.875 48.438 107.735 48.955 107.624 49.604H107.238C107.272 49.351 107.289 49.01 107.289 48.581C107.289 48.394 107.277 48.1245 107.255 47.7724C107.244 47.4204 107.216 47.0519 107.171 46.6669H111.09C111.492 46.6669 111.777 46.5844 111.944 46.4194C112.112 46.2544 112.195 45.9409 112.195 45.4789V40.0338C112.195 39.5718 112.128 39.2582 111.994 39.0932C111.86 38.9282 111.626 38.8457 111.291 38.8457H111.14C110.794 38.8457 110.571 38.9337 110.47 39.1097C110.381 39.2747 110.314 39.5827 110.269 40.0338C110.225 40.6828 110.163 41.3373 110.085 41.9973C110.018 42.6573 109.923 43.2898 109.801 43.8949C109.689 44.4889 109.527 45.0279 109.315 45.5119C109.125 45.9299 108.885 46.2654 108.595 46.5184C108.316 46.7604 107.981 46.8979 107.59 46.9309L107.49 46.6669C107.858 46.6669 108.171 46.5459 108.427 46.3039C108.684 46.0509 108.874 45.7649 108.997 45.4459C109.309 44.7309 109.521 43.8949 109.633 42.9378C109.756 41.9698 109.856 41.0018 109.935 40.0338C109.968 39.5718 109.868 39.2582 109.633 39.0932C109.41 38.9282 109.069 38.8457 108.612 38.8457V38.4992C108.701 38.5102 108.84 38.5212 109.03 38.5322C109.231 38.5322 109.466 38.5322 109.734 38.5322C109.957 38.5322 110.197 38.5267 110.454 38.5157C110.71 38.5047 111.023 38.4992 111.391 38.4992C111.827 38.4992 112.201 38.5102 112.513 38.5322C112.826 38.5542 113.155 38.5652 113.501 38.5652C113.881 38.5652 114.272 38.5597 114.674 38.5487C115.076 38.5267 115.377 38.5102 115.578 38.4992Z" fill="#3A3A3C"/>
<path d="M126.812 38.4992V38.8457C126.421 38.8457 126.142 38.9282 125.975 39.0932C125.819 39.2582 125.74 39.5718 125.74 40.0338V45.4789C125.74 45.9409 125.819 46.2544 125.975 46.4194C126.142 46.5844 126.421 46.6669 126.812 46.6669V47.0134C126.6 47.0024 126.276 46.9914 125.841 46.9804C125.417 46.9584 125.004 46.9474 124.602 46.9474C124.177 46.9474 123.759 46.9584 123.346 46.9804C122.944 46.9914 122.637 47.0024 122.425 47.0134V46.6669C122.76 46.6669 122.994 46.5844 123.128 46.4194C123.262 46.2544 123.329 45.9409 123.329 45.4789V40.0338C123.329 39.5718 123.262 39.2582 123.128 39.0932C122.994 38.9282 122.76 38.8457 122.425 38.8457V38.4992C122.626 38.5102 122.921 38.5267 123.312 38.5487C123.703 38.5597 124.099 38.5652 124.501 38.5652C124.937 38.5652 125.372 38.5597 125.807 38.5487C126.254 38.5267 126.589 38.5102 126.812 38.4992ZM121.035 38.4992V38.8457C120.711 38.8457 120.477 38.9282 120.331 39.0932C120.197 39.2582 120.13 39.5718 120.13 40.0338V45.4789C120.13 45.9409 120.197 46.2544 120.331 46.4194C120.477 46.5844 120.711 46.6669 121.035 46.6669V47.0134C120.834 47.0024 120.538 46.9914 120.147 46.9804C119.768 46.9584 119.371 46.9474 118.958 46.9474C118.534 46.9474 118.099 46.9584 117.652 46.9804C117.205 46.9914 116.871 47.0024 116.647 47.0134V46.6669C117.038 46.6669 117.312 46.5844 117.468 46.4194C117.635 46.2544 117.719 45.9409 117.719 45.4789V40.0338C117.719 39.5718 117.635 39.2582 117.468 39.0932C117.312 38.9282 117.038 38.8457 116.647 38.8457V38.4992C116.859 38.5102 117.178 38.5267 117.602 38.5487C118.037 38.5597 118.456 38.5652 118.858 38.5652C119.293 38.5652 119.712 38.5597 120.114 38.5487C120.527 38.5267 120.834 38.5102 121.035 38.4992ZM123.53 39.5057L123.815 39.6707L119.829 46.3204L119.544 46.1554L123.53 39.5057Z" fill="#3A3A3C"/>
<path d="M139.192 38.4827V38.8292C138.924 38.8292 138.718 38.8677 138.573 38.9447C138.427 39.0107 138.327 39.1372 138.271 39.3242C138.215 39.5002 138.187 39.7588 138.187 40.0998V45.3964C138.187 45.7374 138.215 46.0014 138.271 46.1884C138.327 46.3644 138.427 46.4909 138.573 46.5679C138.718 46.6339 138.924 46.6669 139.192 46.6669V47.0134C138.958 47.0024 138.645 46.9914 138.254 46.9804C137.864 46.9584 137.456 46.9474 137.032 46.9474C136.574 46.9474 136.128 46.9584 135.692 46.9804C135.257 46.9914 134.916 47.0024 134.671 47.0134V46.6669C134.961 46.6669 135.184 46.6339 135.341 46.5679C135.508 46.4909 135.62 46.3644 135.675 46.1884C135.742 46.0014 135.776 45.7374 135.776 45.3964V39.4397L132.577 47.0959H132.309L129.111 39.5387V44.6704C129.111 45.0994 129.15 45.4624 129.228 45.7594C129.306 46.0454 129.457 46.2654 129.68 46.4194C129.904 46.5734 130.233 46.6614 130.668 46.6834V47.0134C130.211 46.9804 129.636 46.9639 128.943 46.9639C128.709 46.9639 128.463 46.9694 128.207 46.9804C127.961 46.9804 127.755 46.9914 127.587 47.0134V46.6834C127.911 46.6614 128.156 46.5679 128.324 46.4029C128.491 46.2269 128.603 45.9849 128.659 45.6769C128.715 45.3689 128.743 45.0004 128.743 44.5714V40.2318C128.743 39.8248 128.715 39.5277 128.659 39.3407C128.603 39.1427 128.491 39.0107 128.324 38.9447C128.156 38.8677 127.911 38.8237 127.587 38.8127V38.4827C127.755 38.4937 127.961 38.5047 128.207 38.5157C128.463 38.5267 128.709 38.5322 128.943 38.5322C129.803 38.5322 130.551 38.5157 131.188 38.4827L133.565 44.3734L132.963 45.2974L135.776 38.5322C135.977 38.5322 136.2 38.5377 136.446 38.5487C136.691 38.5487 136.92 38.5487 137.132 38.5487C137.534 38.5487 137.919 38.5432 138.288 38.5322C138.667 38.5102 138.969 38.4937 139.192 38.4827Z" fill="#3A3A3C"/>
<path d="M150.231 38.4992V38.8457C149.84 38.8457 149.561 38.9282 149.393 39.0932C149.237 39.2582 149.159 39.5718 149.159 40.0338V45.4789C149.159 45.9409 149.237 46.2544 149.393 46.4194C149.561 46.5844 149.84 46.6669 150.231 46.6669V47.0134C150.018 47.0024 149.695 46.9914 149.259 46.9804C148.835 46.9584 148.422 46.9474 148.02 46.9474C147.596 46.9474 147.177 46.9584 146.764 46.9804C146.362 46.9914 146.055 47.0024 145.843 47.0134V46.6669C146.178 46.6669 146.412 46.5844 146.546 46.4194C146.68 46.2544 146.747 45.9409 146.747 45.4789V40.0338C146.747 39.5718 146.68 39.2582 146.546 39.0932C146.412 38.9282 146.178 38.8457 145.843 38.8457V38.4992C146.044 38.5102 146.34 38.5267 146.731 38.5487C147.121 38.5597 147.518 38.5652 147.92 38.5652C148.355 38.5652 148.79 38.5597 149.226 38.5487C149.672 38.5267 150.007 38.5102 150.231 38.4992ZM144.453 38.4992V38.8457C144.129 38.8457 143.895 38.9282 143.75 39.0932C143.616 39.2582 143.549 39.5718 143.549 40.0338V45.4789C143.549 45.9409 143.616 46.2544 143.75 46.4194C143.895 46.5844 144.129 46.6669 144.453 46.6669V47.0134C144.252 47.0024 143.956 46.9914 143.566 46.9804C143.186 46.9584 142.79 46.9474 142.377 46.9474C141.952 46.9474 141.517 46.9584 141.07 46.9804C140.624 46.9914 140.289 47.0024 140.066 47.0134V46.6669C140.456 46.6669 140.73 46.5844 140.886 46.4194C141.054 46.2544 141.137 45.9409 141.137 45.4789V40.0338C141.137 39.5718 141.054 39.2582 140.886 39.0932C140.73 38.9282 140.456 38.8457 140.066 38.8457V38.4992C140.278 38.5102 140.596 38.5267 141.02 38.5487C141.456 38.5597 141.874 38.5652 142.276 38.5652C142.712 38.5652 143.13 38.5597 143.532 38.5487C143.945 38.5267 144.252 38.5102 144.453 38.4992ZM146.948 39.5057L147.233 39.6707L143.247 46.3204L142.963 46.1554L146.948 39.5057Z" fill="#3A3A3C"/>
<path d="M154.455 38.3012V48.3665C154.455 48.8835 154.589 49.2245 154.857 49.3895C155.125 49.5655 155.493 49.6535 155.962 49.6535V50C155.672 49.989 155.27 49.9725 154.757 49.9505C154.254 49.9395 153.718 49.934 153.149 49.934C152.736 49.934 152.328 49.9395 151.927 49.9505C151.536 49.9725 151.24 49.989 151.039 50V49.6535C151.407 49.6535 151.664 49.5765 151.809 49.4225C151.966 49.2685 152.044 48.9715 152.044 48.5315V40.2813C152.044 39.7863 151.966 39.4232 151.809 39.1922C151.653 38.9502 151.374 38.8292 150.972 38.8292V38.4827C151.329 38.5157 151.675 38.5322 152.01 38.5322C152.468 38.5322 152.903 38.5157 153.316 38.4827C153.73 38.4387 154.109 38.3782 154.455 38.3012ZM157.051 38.2517C157.899 38.2517 158.608 38.5927 159.178 39.2747C159.758 39.9568 160.048 40.9853 160.048 42.3603C160.048 43.4273 159.887 44.3239 159.563 45.0499C159.239 45.7759 158.787 46.3259 158.206 46.6999C157.637 47.0629 156.956 47.2444 156.163 47.2444C155.728 47.2444 155.332 47.1674 154.974 47.0134C154.617 46.8704 154.344 46.6614 154.154 46.3864L154.321 46.1719C154.433 46.3699 154.589 46.5239 154.79 46.6339C155.002 46.7439 155.242 46.7989 155.51 46.7989C156.013 46.7989 156.409 46.6339 156.699 46.3039C156.99 45.9629 157.196 45.4899 157.319 44.8849C157.453 44.2689 157.52 43.5373 157.52 42.6903C157.52 41.7443 157.458 41.0018 157.336 40.4628C157.213 39.9238 157.045 39.5387 156.833 39.3077C156.621 39.0767 156.364 38.9612 156.063 38.9612C155.661 38.9612 155.293 39.1152 154.958 39.4232C154.634 39.7313 154.45 40.1713 154.405 40.7433L154.321 40.1658C154.522 39.5387 154.863 39.0657 155.343 38.7467C155.834 38.4167 156.403 38.2517 157.051 38.2517Z" fill="#3A3A3C"/>
<path d="M165.401 38.2517C166.216 38.2517 166.93 38.4002 167.544 38.6972C168.158 38.9942 168.638 39.4727 168.984 40.1328C169.33 40.7928 169.503 41.6673 169.503 42.7563C169.503 43.8454 169.33 44.7199 168.984 45.3799C168.638 46.0289 168.158 46.5019 167.544 46.7989C166.93 47.0959 166.216 47.2444 165.401 47.2444C164.608 47.2444 163.899 47.0959 163.274 46.7989C162.66 46.5019 162.174 46.0289 161.817 45.3799C161.471 44.7199 161.298 43.8454 161.298 42.7563C161.298 41.6673 161.471 40.7928 161.817 40.1328C162.174 39.4727 162.66 38.9942 163.274 38.6972C163.899 38.4002 164.608 38.2517 165.401 38.2517ZM165.401 38.5817C164.954 38.5817 164.58 38.9117 164.279 39.5718C163.977 40.2208 163.827 41.2823 163.827 42.7563C163.827 44.2304 163.977 45.2919 164.279 45.9409C164.58 46.5899 164.954 46.9144 165.401 46.9144C165.858 46.9144 166.232 46.5899 166.523 45.9409C166.824 45.2919 166.975 44.2304 166.975 42.7563C166.975 41.2823 166.824 40.2208 166.523 39.5718C166.232 38.9117 165.858 38.5817 165.401 38.5817Z" fill="#3A3A3C"/>
<path d="M175.405 38.4992C176.678 38.4992 177.56 38.6807 178.051 39.0437C178.542 39.4067 178.788 39.8743 178.788 40.4463C178.788 41.0513 178.459 41.5683 177.8 41.9973C177.141 42.4263 176.114 42.6408 174.719 42.6408C174.719 42.6408 174.646 42.6243 174.501 42.5913C174.367 42.5583 174.3 42.5418 174.3 42.5418C174.869 42.5308 175.299 42.4538 175.59 42.3108C175.88 42.1678 176.075 41.9588 176.176 41.6838C176.287 41.3978 176.343 41.0458 176.343 40.6278C176.343 40.1328 176.254 39.7148 176.075 39.3737C175.897 39.0217 175.506 38.8457 174.903 38.8457C174.579 38.8457 174.35 38.9227 174.216 39.0767C174.094 39.2307 174.032 39.5497 174.032 40.0338V45.4789C174.032 45.9629 174.099 46.2819 174.233 46.4359C174.367 46.5899 174.607 46.6669 174.953 46.6669C175.422 46.6669 175.785 46.5789 176.042 46.4029C176.298 46.2159 176.471 45.9794 176.561 45.6934C176.661 45.3964 176.712 45.0829 176.712 44.7529C176.712 44.0599 176.544 43.5703 176.209 43.2843C175.885 42.9983 175.394 42.8553 174.735 42.8553H172.793C172.793 42.8553 172.793 42.8058 172.793 42.7068C172.793 42.5968 172.793 42.5418 172.793 42.5418H175.054L175.338 42.5748C176.767 42.5748 177.767 42.7618 178.336 43.1358C178.905 43.4988 179.19 44.0324 179.19 44.7364C179.19 45.1764 179.078 45.5724 178.855 45.9244C178.632 46.2654 178.258 46.5349 177.733 46.7329C177.219 46.9199 176.522 47.0134 175.64 47.0134C175.294 47.0134 174.875 47.0024 174.384 46.9804C173.893 46.9584 173.379 46.9474 172.843 46.9474C172.43 46.9474 172 46.9584 171.554 46.9804C171.107 46.9914 170.772 47.0024 170.549 47.0134V46.6669C170.94 46.6669 171.213 46.5844 171.369 46.4194C171.537 46.2544 171.621 45.9409 171.621 45.4789V40.0338C171.621 39.5718 171.537 39.2582 171.369 39.0932C171.213 38.9282 170.94 38.8457 170.549 38.8457V38.4992C170.761 38.5102 171.079 38.5267 171.503 38.5487C171.939 38.5597 172.352 38.5652 172.743 38.5652C173.245 38.5652 173.725 38.5542 174.183 38.5322C174.652 38.5102 175.059 38.4992 175.405 38.4992Z" fill="#3A3A3C"/>
<path d="M190.012 38.4992V38.8457C189.621 38.8457 189.342 38.9282 189.175 39.0932C189.018 39.2582 188.94 39.5718 188.94 40.0338V45.4789C188.94 45.9409 189.018 46.2544 189.175 46.4194C189.342 46.5844 189.621 46.6669 190.012 46.6669V47.0134C189.8 47.0024 189.476 46.9914 189.041 46.9804C188.617 46.9584 188.203 46.9474 187.802 46.9474C187.377 46.9474 186.959 46.9584 186.546 46.9804C186.144 46.9914 185.837 47.0024 185.625 47.0134V46.6669C185.959 46.6669 186.194 46.5844 186.328 46.4194C186.462 46.2544 186.529 45.9409 186.529 45.4789V40.0338C186.529 39.5718 186.462 39.2582 186.328 39.0932C186.194 38.9282 185.959 38.8457 185.625 38.8457V38.4992C185.825 38.5102 186.121 38.5267 186.512 38.5487C186.903 38.5597 187.299 38.5652 187.701 38.5652C188.136 38.5652 188.572 38.5597 189.007 38.5487C189.454 38.5267 189.789 38.5102 190.012 38.4992ZM184.536 38.4992V38.8457C184.212 38.8457 183.978 38.9282 183.833 39.0932C183.699 39.2582 183.632 39.5718 183.632 40.0338V45.4789C183.632 45.9409 183.699 46.2544 183.833 46.4194C183.978 46.5844 184.212 46.6669 184.536 46.6669V47.0134C184.335 47.0024 184.039 46.9914 183.648 46.9804C183.269 46.9584 182.873 46.9474 182.46 46.9474C182.035 46.9474 181.6 46.9584 181.153 46.9804C180.707 46.9914 180.372 47.0024 180.149 47.0134V46.6669C180.539 46.6669 180.813 46.5844 180.969 46.4194C181.137 46.2544 181.22 45.9409 181.22 45.4789V40.0338C181.22 39.5718 181.137 39.2582 180.969 39.0932C180.813 38.9282 180.539 38.8457 180.149 38.8457V38.4992C180.361 38.5102 180.679 38.5267 181.103 38.5487C181.538 38.5597 181.957 38.5652 182.359 38.5652C182.794 38.5652 183.213 38.5597 183.615 38.5487C184.028 38.5267 184.335 38.5102 184.536 38.4992ZM187.4 42.4593V42.7893H182.677V42.4593H187.4Z" fill="#3A3A3C"/>
<path d="M193.022 47.1289C192.274 47.1289 191.732 46.9364 191.397 46.5514C191.062 46.1664 190.895 45.6989 190.895 45.1489C190.895 44.6759 191.001 44.2909 191.213 43.9939C191.436 43.6968 191.721 43.4548 192.067 43.2678C192.413 43.0698 192.776 42.9103 193.156 42.7893C193.546 42.6573 193.915 42.5308 194.261 42.4098C194.618 42.2778 194.903 42.1293 195.115 41.9643C195.338 41.7993 195.45 41.5903 195.45 41.3373V40.0503C195.45 39.7643 195.4 39.5112 195.299 39.2912C195.21 39.0602 195.065 38.8842 194.864 38.7632C194.674 38.6422 194.423 38.5817 194.11 38.5817C193.887 38.5817 193.664 38.6147 193.44 38.6807C193.217 38.7357 193.033 38.8347 192.888 38.9777C193.2 39.0877 193.44 39.2582 193.608 39.4892C193.786 39.7093 193.876 39.9623 193.876 40.2483C193.876 40.6223 193.742 40.9193 193.474 41.1393C193.217 41.3593 192.91 41.4693 192.553 41.4693C192.151 41.4693 191.844 41.3483 191.632 41.1063C191.431 40.8533 191.33 40.5508 191.33 40.1988C191.33 39.8798 191.408 39.6157 191.565 39.4067C191.732 39.1977 191.961 38.9997 192.251 38.8127C192.564 38.6367 192.938 38.4992 193.373 38.4002C193.82 38.3012 194.3 38.2517 194.813 38.2517C195.327 38.2517 195.79 38.3067 196.203 38.4167C196.616 38.5157 196.963 38.7027 197.242 38.9777C197.498 39.2307 197.666 39.5443 197.744 39.9183C197.822 40.2813 197.861 40.7433 197.861 41.3043V45.7924C197.861 46.0564 197.889 46.2434 197.945 46.3534C198.001 46.4634 198.096 46.5184 198.23 46.5184C198.341 46.5184 198.447 46.4909 198.548 46.4359C198.648 46.3809 198.743 46.3149 198.833 46.2379L199 46.5184C198.766 46.7164 198.492 46.8704 198.179 46.9804C197.878 47.0794 197.538 47.1289 197.158 47.1289C196.488 47.1289 196.042 46.9969 195.818 46.7329C195.606 46.4579 195.494 46.1444 195.483 45.7924C195.204 46.2434 194.858 46.5789 194.445 46.7989C194.043 47.0189 193.569 47.1289 193.022 47.1289ZM194.311 46.0729C194.523 46.0729 194.719 46.0234 194.897 45.9244C195.087 45.8254 195.271 45.6494 195.45 45.3964V42.0138C195.316 42.2338 195.126 42.4208 194.88 42.5748C194.646 42.7178 194.4 42.8773 194.144 43.0533C193.898 43.2183 193.691 43.4328 193.524 43.6968C193.357 43.9609 193.273 44.3129 193.273 44.7529C193.273 45.2259 193.373 45.5669 193.574 45.7759C193.775 45.9739 194.021 46.0729 194.311 46.0729Z" fill="#3A3A3C"/>
</svg>
